<svg width="1440" height="900" viewBox="0 0 1440 900" xmlns="http://www.w3.org/2000/svg" xmlns:svg="http://www.w3.org/2000/svg">
  <defs>
    <linearGradient id="steel" x1="0" y1="0" x2="1" y2="0">
      <stop offset="0" stop-color="#cbd5e1"/>
      <stop offset="0.5" stop-color="#f8fafc"/>
      <stop offset="1" stop-color="#b8c5d4"/>
    </linearGradient>
    <linearGradient id="panel" x1="0" y1="0" x2="0" y2="1">
      <stop offset="0" stop-color="#ffffff"/>
      <stop offset="1" stop-color="#f1f5f9"/>
    </linearGradient>
    <filter id="shadow" x="-20%" y="-20%" width="140%" height="150%">
      <feDropShadow dx="0" dy="4" stdDeviation="5" flood-color="#0f172a" flood-opacity="0.16"/>
    </filter>
  </defs>

  <rect width="1440" height="900" fill="#e9f0f7"/>
  <rect width="1440" height="70" fill="#203b60"/>
  <rect y="66" width="1440" height="4" fill="#38a6bd"/>
  <text x="32" y="29" fill="#ffffff" font-family="sans-serif" font-size="18" font-weight="700">RIVERMARK BEVERAGE CO.</text>
  <text x="32" y="50" fill="#b8c8db" font-family="sans-serif" font-size="11" letter-spacing="2">LINE 4 BOTTLING CELL</text>
  <text x="720" y="31" fill="#ffffff" font-family="sans-serif" font-size="22" font-weight="700" text-anchor="middle">PROCESS OVERVIEW</text>
  <text x="720" y="51" fill="#b8c8db" font-family="sans-serif" font-size="11" letter-spacing="1.5" text-anchor="middle">ONE CONTROLLER • LIVE MODBUS TELEMETRY</text>
  <text x="1348" y="37" fill="#d1fae5" font-family="sans-serif" font-size="12" text-anchor="end">PLC-101 STATUS</text>
  <g id="GSE_controller" type="svg-ext-gauge_semaphore" stroke="#ffffff" font-family="sans-serif">
    <ellipse cx="1374" cy="33" rx="9" ry="9" fill="#22c55e" stroke-width="2" id="lamp_controller"/>
  </g>

  <g font-family="sans-serif">
    <rect x="20" y="86" width="335" height="48" rx="6" fill="#dce7f3" stroke="#b4c5d7"/>
    <rect x="370" y="86" width="335" height="48" rx="6" fill="#dce7f3" stroke="#b4c5d7"/>
    <rect x="720" y="86" width="335" height="48" rx="6" fill="#dce7f3" stroke="#b4c5d7"/>
    <rect x="1070" y="86" width="350" height="48" rx="6" fill="#dce7f3" stroke="#b4c5d7"/>
    <circle cx="47" cy="110" r="14" fill="#315a87"/><text x="47" y="115" fill="#ffffff" font-size="13" font-weight="700" text-anchor="middle">1</text>
    <circle cx="397" cy="110" r="14" fill="#315a87"/><text x="397" y="115" fill="#ffffff" font-size="13" font-weight="700" text-anchor="middle">2</text>
    <circle cx="747" cy="110" r="14" fill="#315a87"/><text x="747" y="115" fill="#ffffff" font-size="13" font-weight="700" text-anchor="middle">3</text>
    <circle cx="1097" cy="110" r="14" fill="#315a87"/><text x="1097" y="115" fill="#ffffff" font-size="13" font-weight="700" text-anchor="middle">4</text>
    <text x="70" y="115" fill="#24364b" font-size="13" font-weight="700">STORAGE</text>
    <text x="420" y="115" fill="#24364b" font-size="13" font-weight="700">TRANSFER</text>
    <text x="770" y="115" fill="#24364b" font-size="13" font-weight="700">FILLING</text>
    <text x="1120" y="115" fill="#24364b" font-size="13" font-weight="700">PACKOUT</text>
  </g>

  <rect x="20" y="148" width="1400" height="398" rx="10" fill="#f8fafc" stroke="#bdcad8" filter="url(#shadow)"/>

  <text x="220" y="166" fill="#64748b" font-family="sans-serif" font-size="11" font-weight="700" text-anchor="middle">RAW PRODUCT INLET</text>
  <line x1="220" y1="171" x2="220" y2="209" stroke="#90a2b5" stroke-width="14"/>
  <line x1="220" y1="171" x2="220" y2="209" stroke="#4f8fe8" stroke-width="5" stroke-dasharray="12 7"/>
  <g id="GSE_inlet" type="svg-ext-gauge_semaphore" stroke="#203247" font-family="sans-serif">
    <ellipse cx="220" cy="190" rx="13" ry="13" fill="#22c55e" stroke-width="3" id="lamp_inlet"/>
  </g>
  <text x="242" y="195" fill="#64748b" font-family="sans-serif" font-size="11">XV-101</text>

  <rect x="76" y="208" width="288" height="284" rx="9" fill="url(#steel)" stroke="#65788d" stroke-width="4"/>
  <path d="M76 237 Q220 205 364 237" fill="none" stroke="#7d91a5" stroke-width="3"/>
  <g id="GXP_tank" type="svg-ext-gauge_progress" font-size="14" font-family="sans-serif" stroke="#52677d">
    <rect x="96" y="239" width="248" height="233" fill="#e2e8f0" id="A-GXP_tank_empty"/>
    <rect x="96" y="355" width="248" height="117" fill="#4f8fe8" id="B-GXP_tank_fill"/>
    <foreignObject x="96" y="239" width="248" height="233" id="H-GXP_tank_progress"/>
  </g>
  <text x="220" y="277" fill="#24364b" font-family="sans-serif" font-size="22" font-weight="700" text-anchor="middle">TK-101</text>
  <text x="220" y="298" fill="#64748b" font-family="sans-serif" font-size="12" text-anchor="middle">SURGE TANK</text>
  <g id="VAL_tank" type="svg-ext-value" fill="#ffffff" font-size="35" font-family="sans-serif" text-anchor="middle">
    <text x="220" y="410" fill="#ffffff" stroke="#244b7c" stroke-width="1" font-weight="700">##.##</text>
  </g>
  <text x="220" y="438" fill="#dbeafe" font-family="sans-serif" font-size="11" font-weight="700" text-anchor="middle">LT-101 REPORTED LEVEL</text>
  <text x="220" y="515" fill="#24364b" font-family="sans-serif" font-size="14" font-weight="700" text-anchor="middle">STORAGE AND LEVEL CONTROL</text>

  <g id="PIE_product" type="svg-ext-pipe">
    <path id="bPIE_product_border" d="M364 421 H660" stroke-width="14" stroke="#64748b" fill="none"/>
    <path id="pPIE_product_pipe" d="M364 421 H660" stroke-width="12" stroke="#cbd5e1" fill="none"/>
    <path id="cPIE_product_flow" d="M364 421 H660" stroke-width="6" stroke="#4f8fe8" fill="none" stroke-dasharray="18 18"/>
  </g>

  <g id="MTR_pump" type="svg-ext-shapes" fill="#718096" stroke="#718096" stroke-width="4" font-family="sans-serif">
    <ellipse cx="490" cy="421" rx="55" ry="55" id="pump_body"/>
    <path d="M490 382 L520 421 L490 460 L460 421 Z" fill="#f8fafc" stroke="none" id="pump_impeller"/>
  </g>
  <rect x="454" y="480" width="72" height="13" fill="url(#steel)" stroke="#65788d"/>
  <text x="490" y="516" fill="#24364b" font-family="sans-serif" font-size="16" font-weight="700" text-anchor="middle">P-101 TRANSFER PUMP</text>

  <rect x="654" y="180" width="246" height="312" rx="9" fill="url(#steel)" stroke="#65788d" stroke-width="4"/>
  <path d="M654 213 Q777 185 900 213" fill="none" stroke="#7d91a5" stroke-width="3"/>
  <text x="777" y="247" fill="#24364b" font-family="sans-serif" font-size="21" font-weight="700" text-anchor="middle">FL-101</text>
  <text x="777" y="269" fill="#64748b" font-family="sans-serif" font-size="12" text-anchor="middle">ACTIVE BOTTLE FILLER</text>
  <line x1="777" y1="282" x2="777" y2="328" stroke="#65788d" stroke-width="10"/>
  <path d="M758 329 H796 L789 346 H765 Z" fill="#315a87"/>
  <g id="GXP_bottle_fill" type="svg-ext-gauge_progress" font-size="10" font-family="sans-serif" stroke="#334155">
    <rect x="750" y="365" width="54" height="91" rx="4" fill="#e2e8f0" id="A-GXP_bottle_empty"/>
    <rect x="750" y="456" width="54" height="0" fill="#38bdf8" id="B-GXP_bottle_liquid"/>
    <foreignObject x="750" y="365" width="54" height="91" id="H-GXP_bottle_progress"/>
  </g>
  <path d="M750 365 h15 v-14 h24 v14 h15 v91 h-54 z" fill="none" stroke="#334155" stroke-width="3"/>
  <g id="VAL_bottle" type="svg-ext-value" fill="#ffffff" font-size="22" font-family="sans-serif" text-anchor="middle">
    <text x="777" y="418" fill="#ffffff" stroke="#1e3a5f" stroke-width="1" font-weight="700">##.##</text>
  </g>
  <text x="777" y="516" fill="#24364b" font-family="sans-serif" font-size="14" font-weight="700" text-anchor="middle">FILLING STATION</text>

  <rect x="934" y="350" width="390" height="142" rx="9" fill="#dce5ee" stroke="#65788d" stroke-width="3"/>
  <g id="PIE_conveyor" type="svg-ext-pipe">
    <path id="bPIE_conveyor_border" d="M958 446 H1298" stroke-width="14" stroke="#334155" fill="none"/>
    <path id="pPIE_conveyor_belt" d="M958 446 H1298" stroke-width="12" stroke="#94a3b8" fill="none"/>
    <path id="cPIE_conveyor_motion" d="M958 446 H1298" stroke-width="6" stroke="#4f8fe8" fill="none" stroke-dasharray="18 18"/>
  </g>
  <g fill="#a8b6c5" stroke="#475569" stroke-width="2">
    <circle cx="980" cy="446" r="17"/><path d="M968 434 L992 458 M992 434 L968 458"/>
    <circle cx="1042" cy="446" r="17"/><path d="M1030 434 L1054 458 M1054 434 L1030 458"/>
    <circle cx="1104" cy="446" r="17"/><path d="M1092 434 L1116 458 M1116 434 L1092 458"/>
    <circle cx="1166" cy="446" r="17"/><path d="M1154 434 L1178 458 M1178 434 L1154 458"/>
    <circle cx="1228" cy="446" r="17"/><path d="M1216 434 L1240 458 M1240 434 L1216 458"/>
    <circle cx="1290" cy="446" r="17"/><path d="M1278 434 L1302 458 M1302 434 L1278 458"/>
  </g>
  <path d="M1020 382 h28 v54 h-28 z M1026 369 h16 v13 h-16 z" fill="#5da0ed" stroke="#334155" stroke-width="2"/>
  <path d="M1125 382 h28 v54 h-28 z M1131 369 h16 v13 h-16 z" fill="#5da0ed" stroke="#334155" stroke-width="2"/>
  <path d="M1230 382 h28 v54 h-28 z M1236 369 h16 v13 h-16 z" fill="#5da0ed" stroke="#334155" stroke-width="2"/>
  <polygon points="1324,410 1354,426 1324,442" fill="#4f8fe8"/>
  <g id="MTR_conveyor" type="svg-ext-shapes" fill="#718096" stroke="#718096" stroke-width="3" font-family="sans-serif">
    <ellipse cx="1288" cy="520" rx="29" ry="29" id="conveyor_motor"/>
    <path d="M1277 501 L1303 520 L1277 539 Z" fill="#f8fafc" stroke="none" id="conveyor_arrow"/>
  </g>
  <text x="1110" y="516" fill="#24364b" font-family="sans-serif" font-size="14" font-weight="700" text-anchor="middle">CV-101 PACKOUT CONVEYOR</text>
  <text x="1110" y="536" fill="#64748b" font-family="sans-serif" font-size="10" text-anchor="middle">POSITION</text>
  <g id="VAL_bottle_position" type="svg-ext-value" fill="#24364b" font-size="13" font-family="sans-serif" text-anchor="start">
    <text x="1146" y="537" fill="#24364b">##.##</text>
  </g>

  <rect x="20" y="564" width="400" height="210" rx="9" fill="url(#panel)" stroke="#bdcad8" filter="url(#shadow)"/>
  <rect x="20" y="564" width="400" height="40" rx="9" fill="#315a87"/>
  <text x="42" y="590" fill="#ffffff" font-family="sans-serif" font-size="13" font-weight="700" letter-spacing="1">LIVE EQUIPMENT STATUS</text>
  <g font-family="sans-serif" font-size="12" fill="#52677d">
    <text x="48" y="635">INLET VALVE XV-101</text>
    <text x="48" y="677">TRANSFER PUMP P-101</text>
    <text x="48" y="719">PACKOUT CONVEYOR CV-101</text>
    <text x="48" y="758">VALIDATED MACHINE STATE</text>
  </g>
  <g id="GSE_pump" type="svg-ext-gauge_semaphore" stroke="#203247" font-family="sans-serif"><ellipse cx="382" cy="672" rx="10" ry="10" fill="#94a3b8" stroke-width="2" id="lamp_pump"/></g>
  <g id="GSE_conveyor" type="svg-ext-gauge_semaphore" stroke="#203247" font-family="sans-serif"><ellipse cx="382" cy="714" rx="10" ry="10" fill="#94a3b8" stroke-width="2" id="lamp_conveyor"/></g>
  <g id="VAL_state" type="svg-ext-value" fill="#0f172a" font-size="16" font-family="sans-serif" font-weight="700" text-anchor="end"><text x="390" y="760" fill="#0f172a">##.##</text></g>
  <g id="GSE_inlet_card" type="svg-ext-gauge_semaphore" stroke="#203247" font-family="sans-serif"><ellipse cx="382" cy="630" rx="10" ry="10" fill="#94a3b8" stroke-width="2" id="lamp_inlet_card"/></g>

  <rect x="440" y="564" width="470" height="210" rx="9" fill="#172b43" stroke="#284763" filter="url(#shadow)"/>
  <text x="464" y="590" fill="#67e8f9" font-family="sans-serif" font-size="13" font-weight="700" letter-spacing="1">P-101 CONDITION MONITORING</text>
  <line x1="464" y1="604" x2="886" y2="604" stroke="#34516d"/>
  <g font-family="sans-serif" font-size="11" fill="#9fb3c8">
    <text x="464" y="635">TEMPERATURE</text><text x="700" y="635">VIBRATION</text>
    <text x="464" y="685">DRY RUN TIMER</text><text x="700" y="685">ACCUMULATED DAMAGE</text>
    <text x="464" y="738">DRY RUN ALARM</text><text x="700" y="738">FILLER SPILL ALARM</text>
  </g>
  <g id="VAL_temp" type="svg-ext-value" fill="#ffffff" font-size="20" font-family="sans-serif" text-anchor="end"><text x="660" y="638" fill="#ffffff">##.##</text></g>
  <g id="VAL_vibration" type="svg-ext-value" fill="#ffffff" font-size="20" font-family="sans-serif" text-anchor="end"><text x="880" y="638" fill="#ffffff">##.##</text></g>
  <g id="VAL_dry" type="svg-ext-value" fill="#ffffff" font-size="20" font-family="sans-serif" text-anchor="end"><text x="660" y="688" fill="#ffffff">##.##</text></g>
  <g id="VAL_damage" type="svg-ext-value" fill="#fca5a5" font-size="20" font-family="sans-serif" text-anchor="end"><text x="880" y="688" fill="#fca5a5">##.##</text></g>
  <g id="GSE_alarm" type="svg-ext-gauge_semaphore" stroke="#0f172a" font-family="sans-serif"><ellipse cx="646" cy="734" rx="10" ry="10" fill="#22c55e" stroke-width="2" id="lamp_alarm"/></g>
  <g id="GSE_spill" type="svg-ext-gauge_semaphore" stroke="#0f172a" font-family="sans-serif"><ellipse cx="866" cy="734" rx="10" ry="10" fill="#22c55e" stroke-width="2" id="lamp_spill"/></g>

  <rect x="930" y="564" width="490" height="210" rx="9" fill="url(#panel)" stroke="#bdcad8" filter="url(#shadow)"/>
  <rect x="930" y="564" width="490" height="40" rx="9" fill="#315a87"/>
  <text x="954" y="590" fill="#ffffff" font-family="sans-serif" font-size="13" font-weight="700" letter-spacing="1">PRODUCTION AND OPERATOR CONTEXT</text>
  <g font-family="sans-serif" fill="#52677d">
    <text x="956" y="633" font-size="11">CURRENT BOTTLE</text>
    <text x="1114" y="633" font-size="11">GOOD BOTTLES</text>
    <text x="1265" y="633" font-size="11">REJECTED</text>
    <text x="956" y="692" font-size="12">The displayed tank level is the value reported by LT-101 through RIO-101.</text>
    <text x="956" y="716" font-size="12">PLC-101 controls the inlet, pump, filling cycle and conveyor.</text>
    <text x="956" y="740" font-size="12">A green run lamp means the corresponding actuator is energized.</text>
  </g>
  <g id="VAL_good" type="svg-ext-value" fill="#0f172a" font-size="24" font-family="sans-serif" font-weight="700" text-anchor="start"><text x="1114" y="663" fill="#0f172a">##.##</text></g>
  <g id="VAL_rejected" type="svg-ext-value" fill="#b91c1c" font-size="24" font-family="sans-serif" font-weight="700" text-anchor="start"><text x="1265" y="663" fill="#b91c1c">##.##</text></g>
  <g id="VAL_bottle_card" type="svg-ext-value" fill="#0f172a" font-size="24" font-family="sans-serif" font-weight="700" text-anchor="start"><text x="956" y="663" fill="#0f172a">##.##</text></g>

  <rect x="20" y="796" width="1400" height="78" rx="8" fill="#a92222" stroke="#7f1d1d" stroke-width="2" filter="url(#shadow)"/>
  <g id="GSE_solved" type="svg-ext-gauge_semaphore" stroke="#ffffff" font-family="sans-serif"><ellipse cx="54" cy="835" rx="15" ry="15" fill="#f59e0b" stroke-width="3" id="lamp_solved"/></g>
  <text x="84" y="825" fill="#fecaca" font-family="sans-serif" font-size="11" font-weight="700" letter-spacing="1.5">INCIDENT VALIDATION</text>
  <text x="84" y="849" fill="#ffffff" font-family="sans-serif" font-size="13">Proof unlocks only after the independent physical-state checker confirms permanent P-101 damage.</text>
  <g id="VAL_flag" type="svg-ext-value" fill="#ffffff" font-size="19" font-family="monospace" font-weight="700" text-anchor="end"><text x="1388" y="842" fill="#ffffff">##.##</text></g>
  <text x="1398" y="891" fill="#64748b" font-family="sans-serif" font-size="10" text-anchor="end">PLC-101 MODBUS/TCP • 500 ms scan • FUXA SCADA</text>
</svg>
