<svg width="1440" height="900" viewBox="0 0 1440 900" xmlns="http://www.w3.org/2000/svg" xmlns:svg="http://www.w3.org/2000/svg">
  <defs>
    <linearGradient id="vesselSteel" x1="0" y1="0" x2="1" y2="0">
      <stop offset="0" stop-color="#b9c5d2"/>
      <stop offset="0.18" stop-color="#e8eef5"/>
      <stop offset="0.52" stop-color="#f8fafc"/>
      <stop offset="0.82" stop-color="#dbe4ee"/>
      <stop offset="1" stop-color="#aebdca"/>
    </linearGradient>
    <linearGradient id="machineSteel" x1="0" y1="0" x2="0" y2="1">
      <stop offset="0" stop-color="#eef3f8"/>
      <stop offset="1" stop-color="#c9d5e2"/>
    </linearGradient>
    <filter id="softShadow" x="-20%" y="-20%" width="140%" height="150%">
      <feDropShadow dx="0" dy="3" stdDeviation="4" flood-color="#18314f" flood-opacity="0.14"/>
    </filter>
  </defs>

  <rect width="1440" height="900" fill="#e7eef6"/>
  <rect width="1440" height="72" fill="#213e63"/>
  <rect y="68" width="1440" height="4" fill="#27a3bb"/>
  <text x="30" y="30" fill="#ffffff" font-family="sans-serif" font-size="18" font-weight="700">RIVERMARK BEVERAGE CO.</text>
  <text x="30" y="51" fill="#b9c9db" font-family="sans-serif" font-size="10" letter-spacing="2.3">LINE 4 BOTTLING CELL</text>
  <text x="720" y="31" fill="#ffffff" font-family="sans-serif" font-size="22" font-weight="700" text-anchor="middle">BOTTLING PROCESS MIMIC</text>
  <text x="720" y="52" fill="#b9c9db" font-family="sans-serif" font-size="10" letter-spacing="1.8" text-anchor="middle">LIVE CONTROL VIEW • PLC-101 • 500 ms scan</text>
  <text x="1288" y="29" fill="#cde9f0" font-family="sans-serif" font-size="10" text-anchor="end">CONTROLLER</text>
  <text x="1288" y="49" fill="#ffffff" font-family="sans-serif" font-size="13" font-weight="700" text-anchor="end">PLC-101</text>
  <g id="GSE_controller" type="svg-ext-gauge_semaphore" stroke="#ffffff" font-family="sans-serif">
    <ellipse cx="1310" cy="38" rx="10" ry="10" fill="#22c55e" stroke-width="2" id="lamp_controller"/>
  </g>
  <text x="1340" y="33" fill="#9fb3c8" font-family="sans-serif" font-size="9">GREEN ACTIVE</text>
  <text x="1340" y="49" fill="#9fb3c8" font-family="sans-serif" font-size="9">GRAY STOPPED</text>

  <g font-family="sans-serif">
    <line x1="40" y1="121" x2="1398" y2="121" stroke="#b8c7d7" stroke-width="2"/>
    <circle cx="62" cy="104" r="16" fill="#315e8c"/><text x="62" y="109" fill="#ffffff" font-size="12" font-weight="700" text-anchor="middle">01</text>
    <text x="88" y="109" fill="#29445f" font-size="12" font-weight="700" letter-spacing="1">STORAGE</text>
    <circle cx="395" cy="104" r="16" fill="#315e8c"/><text x="395" y="109" fill="#ffffff" font-size="12" font-weight="700" text-anchor="middle">02</text>
    <text x="421" y="109" fill="#29445f" font-size="12" font-weight="700" letter-spacing="1">TRANSFER</text>
    <circle cx="710" cy="104" r="16" fill="#315e8c"/><text x="710" y="109" fill="#ffffff" font-size="12" font-weight="700" text-anchor="middle">03</text>
    <text x="736" y="109" fill="#29445f" font-size="12" font-weight="700" letter-spacing="1">FILLING</text>
    <circle cx="1045" cy="104" r="16" fill="#315e8c"/><text x="1045" y="109" fill="#ffffff" font-size="12" font-weight="700" text-anchor="middle">04</text>
    <text x="1071" y="109" fill="#29445f" font-size="12" font-weight="700" letter-spacing="1">PACKOUT</text>
  </g>

  <text x="205" y="147" fill="#61758b" font-family="sans-serif" font-size="10" font-weight="700" text-anchor="middle">RAW PRODUCT</text>
  <line x1="205" y1="151" x2="205" y2="196" stroke="#91a5b8" stroke-width="16"/>
  <line x1="205" y1="151" x2="205" y2="196" stroke="#4b91de" stroke-width="6" stroke-dasharray="14 8"/>
  <path d="M185 175 L205 158 L225 175 L205 192 Z" fill="#dce5ef" stroke="#334b63" stroke-width="3"/>
  <g id="GSE_inlet" type="svg-ext-gauge_semaphore" stroke="#ffffff" font-family="sans-serif">
    <ellipse cx="205" cy="175" rx="8" ry="8" fill="#22c55e" stroke-width="2" id="lamp_inlet"/>
  </g>
  <text x="232" y="180" fill="#52677d" font-family="sans-serif" font-size="10">XV-101</text>

  <rect x="54" y="194" width="302" height="330" rx="8" fill="url(#vesselSteel)" stroke="#62788f" stroke-width="4" filter="url(#softShadow)"/>
  <path d="M54 225 Q205 190 356 225" fill="none" stroke="#7a90a5" stroke-width="3"/>
  <path d="M54 496 Q205 529 356 496" fill="none" stroke="#7a90a5" stroke-width="3" opacity="0.55"/>
  <g id="GXP_tank" type="svg-ext-gauge_progress" font-size="14" font-family="sans-serif" stroke="#52677d">
    <rect x="79" y="237" width="252" height="244" fill="#e4ebf2" id="A-GXP_tank_empty"/>
    <rect x="79" y="359" width="252" height="122" fill="#4b91de" id="B-GXP_tank_fill"/>
    <foreignObject x="79" y="237" width="252" height="244" id="H-GXP_tank_progress"/>
  </g>
  <g stroke="#7f93a7" stroke-width="1" font-family="sans-serif" fill="#607489" font-size="9">
    <line x1="333" y1="237" x2="344" y2="237"/><text x="348" y="240">100</text>
    <line x1="333" y1="298" x2="344" y2="298"/><text x="348" y="301">75</text>
    <line x1="333" y1="359" x2="344" y2="359"/><text x="348" y="362">50</text>
    <line x1="333" y1="420" x2="344" y2="420"/><text x="348" y="423">25</text>
  </g>
  <text x="205" y="268" fill="#23384e" font-family="sans-serif" font-size="23" font-weight="700" text-anchor="middle">TK-101</text>
  <text x="205" y="289" fill="#65798e" font-family="sans-serif" font-size="11" text-anchor="middle">SURGE TANK</text>
  <g id="VAL_tank" type="svg-ext-value" fill="#ffffff" font-size="36" font-family="sans-serif" text-anchor="middle">
    <text x="205" y="411" fill="#ffffff" stroke="#234d7c" stroke-width="1" font-weight="700">##.##</text>
  </g>
  <text x="256" y="411" fill="#e5f2ff" font-family="sans-serif" font-size="14" font-weight="700">%</text>
  <text x="205" y="439" fill="#e5f2ff" font-family="sans-serif" font-size="10" font-weight="700" text-anchor="middle">LT-101 REPORTED LEVEL</text>
  <rect x="76" y="532" width="258" height="30" rx="4" fill="#d7e2ed" stroke="#a8b8c8"/>
  <text x="205" y="552" fill="#29445f" font-family="sans-serif" font-size="11" font-weight="700" text-anchor="middle">STORAGE • TK-101</text>

  <g id="PIE_product" type="svg-ext-pipe">
    <path id="bPIE_product_border" d="M356 430 H650" stroke-width="16" stroke="#64788d" fill="none"/>
    <path id="pPIE_product_pipe" d="M356 430 H650" stroke-width="12" stroke="#d1dae4" fill="none"/>
    <path id="cPIE_product_flow" d="M356 430 H650" stroke-width="6" stroke="#4b91de" fill="none" stroke-dasharray="18 18"/>
  </g>
  <polygon points="598,419 622,430 598,441" fill="#4b91de"/>
  <text x="500" y="364" fill="#607489" font-family="sans-serif" font-size="10" font-weight="700" text-anchor="middle">PRODUCT FLOW TO FL-101</text>

  <circle cx="485" cy="430" r="68" fill="#d7e0ea" stroke="#62788f" stroke-width="5" filter="url(#softShadow)"/>
  <path d="M485 365 C535 365 552 395 552 430 C552 472 522 495 485 495" fill="none" stroke="#62788f" stroke-width="9"/>
  <rect x="545" y="414" width="38" height="32" fill="#d7e0ea" stroke="#62788f" stroke-width="4"/>
  <g id="MTR_pump" type="svg-ext-shapes" fill="#718096" stroke="#718096" stroke-width="7" font-family="sans-serif">
    <circle cx="485" cy="430" r="13" fill="#f8fafc"/>
    <path d="M485 417 C510 389 526 402 511 425" fill="none"/>
    <path d="M496 437 C500 474 481 478 476 450" fill="none"/>
    <path d="M474 437 C445 449 437 430 464 423" fill="none"/>
  </g>
  <rect x="440" y="502" width="90" height="15" fill="url(#machineSteel)" stroke="#62788f"/>
  <rect x="402" y="532" width="166" height="30" rx="4" fill="#d7e2ed" stroke="#a8b8c8"/>
  <text x="485" y="552" fill="#29445f" font-family="sans-serif" font-size="11" font-weight="700" text-anchor="middle">TRANSFER • P-101</text>

  <rect x="650" y="174" width="270" height="350" rx="8" fill="url(#machineSteel)" stroke="#62788f" stroke-width="4" filter="url(#softShadow)"/>
  <rect x="672" y="195" width="226" height="59" rx="4" fill="#315e8c"/>
  <text x="785" y="222" fill="#ffffff" font-family="sans-serif" font-size="20" font-weight="700" text-anchor="middle">FL-101</text>
  <text x="785" y="241" fill="#c8d9e9" font-family="sans-serif" font-size="10" letter-spacing="1" text-anchor="middle">ACTIVE BOTTLE FILLER</text>
  <line x1="785" y1="271" x2="785" y2="326" stroke="#60758a" stroke-width="12"/>
  <rect x="749" y="326" width="72" height="15" rx="3" fill="#315e8c"/>
  <path d="M757 341 H813 L804 359 H766 Z" fill="#315e8c"/>
  <g id="GXP_bottle_fill" type="svg-ext-gauge_progress" font-size="10" font-family="sans-serif" stroke="#334155">
    <rect x="750" y="382" width="70" height="104" rx="5" fill="#e4ebf2" id="A-GXP_bottle_empty"/>
    <rect x="750" y="486" width="70" height="0" fill="#38bdf8" id="B-GXP_bottle_liquid"/>
    <foreignObject x="750" y="382" width="70" height="104" id="H-GXP_bottle_progress"/>
  </g>
  <path d="M750 382 h20 v-17 h30 v17 h20 v104 h-70 z" fill="none" stroke="#334155" stroke-width="4"/>
  <g id="VAL_bottle" type="svg-ext-value" fill="#ffffff" font-size="25" font-family="sans-serif" text-anchor="middle">
    <text x="785" y="448" fill="#ffffff" stroke="#1e3a5f" stroke-width="1" font-weight="700">##.##</text>
  </g>
  <text x="828" y="448" fill="#315e8c" font-family="sans-serif" font-size="12" font-weight="700">%</text>
  <rect x="672" y="532" width="226" height="30" rx="4" fill="#d7e2ed" stroke="#a8b8c8"/>
  <text x="785" y="552" fill="#29445f" font-family="sans-serif" font-size="11" font-weight="700" text-anchor="middle">FILLING • FL-101</text>

  <rect x="950" y="154" width="422" height="144" rx="6" fill="#dbe5ef" stroke="#9aabba" stroke-width="2"/>
  <text x="972" y="179" fill="#315e8c" font-family="sans-serif" font-size="11" font-weight="700" letter-spacing="1">AUTOMATIC CYCLE</text>
  <line x1="972" y1="191" x2="1350" y2="191" stroke="#b0bfce"/>
  <circle cx="980" cy="215" r="10" fill="#315e8c"/><text x="980" y="219" fill="#ffffff" font-family="sans-serif" font-size="9" font-weight="700" text-anchor="middle">1</text>
  <circle cx="980" cy="247" r="10" fill="#315e8c"/><text x="980" y="251" fill="#ffffff" font-family="sans-serif" font-size="9" font-weight="700" text-anchor="middle">2</text>
  <circle cx="980" cy="279" r="10" fill="#315e8c"/><text x="980" y="283" fill="#ffffff" font-family="sans-serif" font-size="9" font-weight="700" text-anchor="middle">3</text>
  <text x="1000" y="219" fill="#465d73" font-family="sans-serif" font-size="11">Bottle held at FL-101 while P-101 fills it</text>
  <text x="1000" y="251" fill="#465d73" font-family="sans-serif" font-size="11">Pump stops when bottle reaches its fill target</text>
  <text x="1000" y="283" fill="#465d73" font-family="sans-serif" font-size="11">CV-101 indexes the completed bottle to packout</text>

  <rect x="950" y="328" width="422" height="196" rx="8" fill="#d6e0ea" stroke="#62788f" stroke-width="4" filter="url(#softShadow)"/>
  <rect x="971" y="343" width="380" height="22" rx="3" fill="#6d8195"/>
  <g id="PIE_conveyor" type="svg-ext-pipe">
    <path id="bPIE_conveyor_border" d="M974 458 H1348" stroke-width="16" stroke="#334155" fill="none"/>
    <path id="pPIE_conveyor_belt" d="M974 458 H1348" stroke-width="12" stroke="#93a3b4" fill="none"/>
    <path id="cPIE_conveyor_motion" d="M974 458 H1348" stroke-width="6" stroke="#4b91de" fill="none" stroke-dasharray="18 18"/>
  </g>
  <g fill="#a8b6c5" stroke="#475569" stroke-width="2">
    <circle cx="994" cy="458" r="17"/><path d="M982 446 L1006 470 M1006 446 L982 470"/>
    <circle cx="1054" cy="458" r="17"/><path d="M1042 446 L1066 470 M1066 446 L1042 470"/>
    <circle cx="1114" cy="458" r="17"/><path d="M1102 446 L1126 470 M1126 446 L1102 470"/>
    <circle cx="1174" cy="458" r="17"/><path d="M1162 446 L1186 470 M1186 446 L1162 470"/>
    <circle cx="1234" cy="458" r="17"/><path d="M1222 446 L1246 470 M1246 446 L1222 470"/>
    <circle cx="1294" cy="458" r="17"/><path d="M1282 446 L1306 470 M1306 446 L1282 470"/>
    <circle cx="1344" cy="458" r="17"/><path d="M1332 446 L1356 470 M1356 446 L1332 470"/>
  </g>
  <path d="M1012 390 h30 v56 h-30 z M1018 376 h18 v14 h-18 z" fill="#5d9ee8" stroke="#334155" stroke-width="2"/>
  <path d="M1124 390 h30 v56 h-30 z M1130 376 h18 v14 h-18 z" fill="#5d9ee8" stroke="#334155" stroke-width="2"/>
  <path d="M1236 390 h30 v56 h-30 z M1242 376 h18 v14 h-18 z" fill="#5d9ee8" stroke="#334155" stroke-width="2"/>
  <polygon points="1372,420 1400,436 1372,452" fill="#4b91de"/>
  <circle cx="1320" cy="535" r="33" fill="#d6e0ea" stroke="#62788f" stroke-width="4"/>
  <g id="MTR_conveyor" type="svg-ext-shapes" fill="none" stroke="#718096" stroke-width="6" font-family="sans-serif">
    <circle cx="1320" cy="535" r="9" fill="#f8fafc"/>
    <line x1="1320" y1="510" x2="1320" y2="526"/>
    <line x1="1298" y1="548" x2="1312" y2="540"/>
    <line x1="1342" y1="548" x2="1328" y2="540"/>
  </g>
  <rect x="972" y="532" width="312" height="30" rx="4" fill="#d7e2ed" stroke="#a8b8c8"/>
  <text x="1092" y="552" fill="#29445f" font-family="sans-serif" font-size="11" font-weight="700" text-anchor="middle">PACKOUT • CV-101</text>
  <text x="1194" y="552" fill="#607489" font-family="sans-serif" font-size="9">POSITION</text>
  <g id="VAL_bottle_position" type="svg-ext-value" fill="#29445f" font-size="12" font-family="sans-serif" text-anchor="start"><text x="1240" y="553" fill="#29445f">##.##</text></g>

  <line x1="40" y1="583" x2="1398" y2="583" stroke="#b8c7d7" stroke-width="2"/>

  <rect x="40" y="600" width="410" height="184" rx="5" fill="#f8fafc" stroke="#aebdcc" stroke-width="2"/>
  <rect x="40" y="600" width="410" height="36" rx="5" fill="#315e8c"/>
  <text x="60" y="623" fill="#ffffff" font-family="sans-serif" font-size="12" font-weight="700" letter-spacing="1">EQUIPMENT STATE</text>
  <g font-family="sans-serif" font-size="11" fill="#52677d">
    <text x="62" y="665">INLET VALVE XV-101</text><text x="326" y="665" fill="#7b8da0" font-size="9">RUN INDICATOR</text>
    <text x="62" y="702">TRANSFER PUMP P-101</text><text x="326" y="702" fill="#7b8da0" font-size="9">RUN INDICATOR</text>
    <text x="62" y="739">CONVEYOR CV-101</text><text x="326" y="739" fill="#7b8da0" font-size="9">RUN INDICATOR</text>
    <text x="62" y="773">MACHINE STATE</text>
  </g>
  <g id="GSE_inlet_card" type="svg-ext-gauge_semaphore" stroke="#203247" font-family="sans-serif"><ellipse cx="425" cy="660" rx="10" ry="10" fill="#94a3b8" stroke-width="2" id="lamp_inlet_card"/></g>
  <g id="GSE_pump" type="svg-ext-gauge_semaphore" stroke="#203247" font-family="sans-serif"><ellipse cx="425" cy="697" rx="10" ry="10" fill="#94a3b8" stroke-width="2" id="lamp_pump"/></g>
  <g id="GSE_conveyor" type="svg-ext-gauge_semaphore" stroke="#203247" font-family="sans-serif"><ellipse cx="425" cy="734" rx="10" ry="10" fill="#94a3b8" stroke-width="2" id="lamp_conveyor"/></g>
  <g id="VAL_state" type="svg-ext-value" fill="#0f172a" font-size="16" font-family="sans-serif" font-weight="700" text-anchor="end"><text x="430" y="775" fill="#0f172a">##.##</text></g>

  <rect x="470" y="600" width="450" height="184" rx="5" fill="#172e49" stroke="#294a68" stroke-width="2"/>
  <text x="492" y="623" fill="#67e8f9" font-family="sans-serif" font-size="12" font-weight="700" letter-spacing="1">P-101 CONDITION</text>
  <line x1="492" y1="637" x2="898" y2="637" stroke="#34536f"/>
  <g font-family="sans-serif" font-size="10" fill="#9fb3c8">
    <text x="492" y="664">TEMPERATURE</text><text x="714" y="664">VIBRATION</text>
    <text x="492" y="710">DRY RUN TIMER</text><text x="714" y="710">PUMP DAMAGE</text>
    <text x="492" y="758">DRY RUN ALARM</text><text x="714" y="758">FILLER SPILL</text>
  </g>
  <g id="VAL_temp" type="svg-ext-value" fill="#ffffff" font-size="19" font-family="sans-serif" text-anchor="end"><text x="682" y="667" fill="#ffffff">##.##</text></g>
  <text x="687" y="667" fill="#9fb3c8" font-family="sans-serif" font-size="10">°C</text>
  <g id="VAL_vibration" type="svg-ext-value" fill="#ffffff" font-size="19" font-family="sans-serif" text-anchor="end"><text x="896" y="667" fill="#ffffff">##.##</text></g>
  <text x="899" y="667" fill="#9fb3c8" font-family="sans-serif" font-size="10">mm/s</text>
  <g id="VAL_dry" type="svg-ext-value" fill="#ffffff" font-size="19" font-family="sans-serif" text-anchor="end"><text x="682" y="713" fill="#ffffff">##.##</text></g>
  <text x="687" y="713" fill="#9fb3c8" font-family="sans-serif" font-size="10">s</text>
  <g id="VAL_damage" type="svg-ext-value" fill="#fca5a5" font-size="19" font-family="sans-serif" text-anchor="end"><text x="896" y="713" fill="#fca5a5">##.##</text></g>
  <text x="899" y="713" fill="#fca5a5" font-family="sans-serif" font-size="10">%</text>
  <g id="GSE_alarm" type="svg-ext-gauge_semaphore" stroke="#0f172a" font-family="sans-serif"><ellipse cx="666" cy="754" rx="10" ry="10" fill="#22c55e" stroke-width="2" id="lamp_alarm"/></g>
  <g id="GSE_spill" type="svg-ext-gauge_semaphore" stroke="#0f172a" font-family="sans-serif"><ellipse cx="880" cy="754" rx="10" ry="10" fill="#22c55e" stroke-width="2" id="lamp_spill"/></g>

  <rect x="940" y="600" width="460" height="184" rx="5" fill="#f8fafc" stroke="#aebdcc" stroke-width="2"/>
  <rect x="940" y="600" width="460" height="36" rx="5" fill="#315e8c"/>
  <text x="960" y="623" fill="#ffffff" font-family="sans-serif" font-size="12" font-weight="700" letter-spacing="1">PRODUCTION</text>
  <g font-family="sans-serif" fill="#52677d">
    <text x="962" y="660" font-size="10">ACTIVE BOTTLE</text><text x="1120" y="660" font-size="10">GOOD</text><text x="1260" y="660" font-size="10">REJECTED</text>
    <text x="962" y="727" font-size="11">Displayed tank level comes from LT-101 through RIO-101.</text>
    <text x="962" y="750" font-size="11">PLC-101 controls every actuator shown on this screen.</text>
    <text x="962" y="773" font-size="11">The checker validates physical damage independently.</text>
  </g>
  <g id="VAL_bottle_card" type="svg-ext-value" fill="#0f172a" font-size="25" font-family="sans-serif" font-weight="700" text-anchor="start"><text x="962" y="693" fill="#0f172a">##.##</text></g>
  <g id="VAL_good" type="svg-ext-value" fill="#0f172a" font-size="25" font-family="sans-serif" font-weight="700" text-anchor="start"><text x="1120" y="693" fill="#0f172a">##.##</text></g>
  <g id="VAL_rejected" type="svg-ext-value" fill="#b91c1c" font-size="25" font-family="sans-serif" font-weight="700" text-anchor="start"><text x="1260" y="693" fill="#b91c1c">##.##</text></g>

  <rect x="40" y="805" width="1360" height="70" rx="6" fill="#a92222" stroke="#7f1d1d" stroke-width="2"/>
  <g id="GSE_solved" type="svg-ext-gauge_semaphore" stroke="#ffffff" font-family="sans-serif"><ellipse cx="72" cy="840" rx="14" ry="14" fill="#f59e0b" stroke-width="3" id="lamp_solved"/></g>
  <text x="101" y="831" fill="#fecaca" font-family="sans-serif" font-size="10" font-weight="700" letter-spacing="1.4">INCIDENT VALIDATION</text>
  <text x="101" y="852" fill="#ffffff" font-family="sans-serif" font-size="12">Proof unlocks only after the physical-state checker confirms permanent P-101 damage.</text>
  <g id="VAL_flag" type="svg-ext-value" fill="#ffffff" font-size="18" font-family="monospace" font-weight="700" text-anchor="end"><text x="1372" y="846" fill="#ffffff">##.##</text></g>
  <text x="1398" y="893" fill="#65798e" font-family="sans-serif" font-size="9" text-anchor="end">FUXA SCADA • CONTROL VLAN 172.30.10.0/24</text>
</svg>
